<?xml version="1.0" encoding="utf-8"?>
<!-- Generator: Adobe Illustrator 16.0.4, SVG Export Plug-In . SVG Version: 6.00 Build 0)  -->
<!DOCTYPE svg PUBLIC "-//W3C//DTD SVG 1.1//EN" "http://www.w3.org/Graphics/SVG/1.1/DTD/svg11.dtd">
<svg version="1.1" id="Layer_1" xmlns="http://www.w3.org/2000/svg" xmlns:xlink="http://www.w3.org/1999/xlink" x="0px" y="0px"
	 width="249.296px" height="215.493px" viewBox="0 0 249.296 215.493" enable-background="new 0 0 249.296 215.493"
	 xml:space="preserve">
<rect x="19.721" y="53.13" fill="none" stroke="#010101" stroke-width="2" stroke-miterlimit="10" width="113.493" height="135.686"/>
<g>
	<g>
		<path fill="#010101" d="M42.652,89.908c6.682,31.061,19.364,60.747,24.198,92.163c1.947,12.628,22.868,7.22,20.937-5.271
			c-4.824-31.424-17.514-61.111-24.178-92.171C60.932,72.084,39.976,77.404,42.652,89.908L42.652,89.908z"/>
	</g>
</g>
<g>
	<g>
		<path fill="#010101" d="M88.94,177.629c-6.044-66.319,60.556-112.126,111.353-141.081c13.037-7.437,1.312-27.574-11.77-20.113
			c-57.872,32.99-129.734,86.2-122.907,161.194C66.982,192.467,90.297,192.624,88.94,177.629L88.94,177.629z"/>
	</g>
</g>
</svg>
