<?xml version="1.0" encoding="utf-8"?>
<!-- Generator: Adobe Illustrator 16.0.4, SVG Export Plug-In . SVG Version: 6.00 Build 0)  -->
<!DOCTYPE svg PUBLIC "-//W3C//DTD SVG 1.1//EN" "http://www.w3.org/Graphics/SVG/1.1/DTD/svg11.dtd">
<svg version="1.1" id="Layer_1" xmlns="http://www.w3.org/2000/svg" xmlns:xlink="http://www.w3.org/1999/xlink" x="0px" y="0px"
	 width="441px" height="178px" viewBox="0 0 441 178" enable-background="new 0 0 441 178" xml:space="preserve">
<rect x="47.63" y="39.986" fill="none" width="641.096" height="231.507"/>
<text transform="matrix(1 0 0 1 47.6299 111.8857)" fill="#B1BF5E" font-family="'Helvetica'" font-size="100">check</text>
<rect x="310.585" y="58" fill="none" stroke="#F1F2F2" stroke-width="2" stroke-miterlimit="10" width="46" height="55"/>
<g>
	<g>
		<path fill="#B1BF5E" d="M313.406,65.299c2.761,14.569,8.481,28.465,10.427,43.201c0.416,3.149,5.421,3.189,5,0
			c-2.008-15.205-7.758-29.504-10.606-44.53C317.628,60.805,312.809,62.149,313.406,65.299L313.406,65.299z"/>
	</g>
</g>
<g>
	<g>
		<path fill="#B1BF5E" d="M328.096,101.252c-3.262-27.371,25.432-47.373,46.239-59.107c2.808-1.583,0.288-5.903-2.523-4.317
			c-22.291,12.572-52.198,34.205-48.716,63.425C323.473,104.413,328.477,104.45,328.096,101.252L328.096,101.252z"/>
	</g>
</g>
</svg>
