<?xml version="1.0" encoding="utf-8"?>
<!-- Generator: Adobe Illustrator 16.0.4, SVG Export Plug-In . SVG Version: 6.00 Build 0)  -->
<!DOCTYPE svg PUBLIC "-//W3C//DTD SVG 1.1//EN" "http://www.w3.org/Graphics/SVG/1.1/DTD/svg11.dtd">
<svg version="1.1" id="Layer_1" xmlns="http://www.w3.org/2000/svg" xmlns:xlink="http://www.w3.org/1999/xlink" x="0px" y="0px"
	 width="135px" height="53px" viewBox="0 0 135 53" enable-background="new 0 0 135 53" xml:space="preserve">
<rect x="30.63" y="15.986" fill="none" width="169.66" height="61.266"/>
<text transform="matrix(1 0 0 1 30.6294 35.0137)" font-family="'Helvetica'" font-size="26.4641">check</text>
<rect x="100.218" y="20.753" fill="none" stroke="#000000" stroke-width="2" stroke-miterlimit="10" width="12.175" height="14.556"/>
<g>
	<g>
		<path d="M102.678,24.698c0.716,3.332,2.077,6.517,2.595,9.887c0.209,1.354,2.454,0.775,2.247-0.566
			c-0.518-3.37-1.88-6.555-2.594-9.887C104.638,22.786,102.391,23.357,102.678,24.698L102.678,24.698z"/>
	</g>
</g>
<g>
	<g>
		<path d="M107.391,33.452c-0.649-7.114,6.496-12.028,11.945-15.134c1.399-0.798,0.141-2.958-1.263-2.158
			c-6.208,3.539-13.917,9.247-13.185,17.292C105.035,35.044,107.536,35.06,107.391,33.452L107.391,33.452z"/>
	</g>
</g>
</svg>
