<?xml version="1.0" standalone="no"?>
<!DOCTYPE svg PUBLIC "-//W3C//DTD SVG 20010904//EN"
 "http://www.w3.org/TR/2001/REC-SVG-20010904/DTD/svg10.dtd">
<svg version="1.0" xmlns="http://www.w3.org/2000/svg"
 width="150.000000pt" height="150.000000pt" viewBox="0 0 150.000000 150.000000"
 preserveAspectRatio="xMidYMid meet">
<metadata>
Created by potrace 1.11, written by Peter Selinger 2001-2013
</metadata>
<g transform="translate(0.000000,150.000000) scale(0.100000,-0.100000)"
fill="#000000" stroke="none">
<path d="M1041 1245 c-57 -36 -133 -86 -169 -112 l-65 -46 -94 -1 c-51 -1 -93
-4 -93 -9 0 -4 33 -7 73 -6 103 1 103 1 71 -23 -96 -72 -240 -242 -291 -341
l-26 -52 -9 30 c-5 17 -20 73 -34 125 -14 52 -30 101 -36 108 -17 20 -72 14
-96 -11 l-22 -23 24 -95 c13 -51 44 -164 69 -249 25 -85 47 -173 50 -195 3
-22 8 -49 12 -60 6 -19 2 -20 -107 -18 -62 1 -127 2 -144 3 l-31 0 2 65 c2 36
-1 65 -6 65 -11 0 -12 -139 -1 -141 20 -4 669 -5 679 -1 9 3 12 82 12 325 l1
321 24 21 c13 11 33 27 43 35 40 34 153 111 248 170 55 34 103 67 108 74 11
16 0 66 -20 88 -27 31 -63 21 -172 -47z m-246 -662 c0 -164 -3 -302 -7 -308
-3 -6 -41 -9 -85 -8 -43 1 -104 2 -137 2 -51 1 -57 3 -46 16 8 9 14 51 16 102
6 134 46 248 129 359 40 52 115 134 125 134 3 0 5 -134 5 -297z"/>
<path d="M116 1081 c-7 -14 -5 -191 2 -191 5 0 8 41 7 90 -1 57 3 90 9 91 6 0
44 1 84 1 39 0 72 3 72 7 0 9 -170 10 -174 2z"/>
<path d="M300 1080 c0 -4 16 -7 35 -8 19 -1 35 2 35 7 0 4 -16 8 -35 8 -19 0
-35 -3 -35 -7z"/>
<path d="M380 1078 c0 -4 52 -7 115 -6 63 1 115 4 115 8 0 4 -52 6 -115 6 -63
0 -115 -4 -115 -8z"/>
<path d="M111 785 c0 -52 4 -95 8 -95 3 0 6 43 7 95 0 52 -4 95 -8 95 -4 0 -8
-43 -7 -95z"/>
<path d="M112 545 c-1 -74 2 -135 6 -135 4 0 7 61 7 135 0 74 -3 135 -6 135
-3 0 -7 -61 -7 -135z"/>
</g>
</svg>
